<svg width="44" height="44" viewBox="0 0 44 44" fill="none" xmlns="http://www.w3.org/2000/svg">
<rect width="44" height="44" rx="22" fill="#F5F6FF"/>
<path fill-rule="evenodd" clip-rule="evenodd" d="M24.8324 14.1987C25.5792 13.3343 25.9539 12.4003 25.9539 11.4001V11.4001C25.9539 11.2674 25.9476 11.1337 25.9324 11C25.4122 11.0263 24.859 11.18 24.2742 11.458C23.6882 11.7402 23.2049 12.0939 22.8249 12.5193C22.0638 13.3596 21.6352 14.3872 21.6352 15.3474C21.6352 15.4801 21.644 15.6064 21.659 15.7264C22.8411 15.8201 23.9312 15.2263 24.8324 14.1987ZM28.8082 28.5193C29.2335 27.928 29.6006 27.2848 29.9107 26.5861C30.0386 26.2898 30.1588 25.9812 30.2727 25.6589C29.7474 25.4441 29.2753 25.1417 28.8525 24.7503C27.9197 23.9071 27.445 22.8452 27.4311 21.5691C27.4159 19.9307 28.1791 18.6536 29.7221 17.7418C28.8601 16.5467 27.564 15.8834 25.8387 15.7476C25.202 15.6949 24.4249 15.8287 23.504 16.1519C22.5303 16.5005 21.9558 16.6753 21.7864 16.6753C21.5597 16.6753 21.0426 16.5258 20.2373 16.231C19.4297 15.9371 18.7799 15.7876 18.2843 15.7876C17.3787 15.8023 16.5377 16.0319 15.7594 16.4826C14.9811 16.9332 14.3592 17.547 13.8917 18.3251C13.297 19.2938 13 20.4498 13 21.7902C13 22.9603 13.2202 24.1689 13.6596 25.417C14.0698 26.5725 14.5935 27.586 15.2304 28.4601C15.8241 29.2786 16.3196 29.8563 16.7158 30.1934C17.3365 30.7563 17.9584 31.0242 18.5823 30.9983C18.9925 30.9847 19.5291 30.8477 20.1952 30.5847C20.8602 30.323 21.4819 30.1934 22.0617 30.1934C22.6144 30.1934 23.219 30.323 23.8768 30.5847C24.5325 30.8477 25.0957 30.9773 25.5628 30.9773C26.2134 30.9625 26.821 30.702 27.388 30.1934C27.7538 29.8835 28.2285 29.3255 28.8082 28.5193Z" fill="#121212"/>
</svg>
