<svg width="52" height="52" viewBox="0 0 52 52" fill="none" xmlns="http://www.w3.org/2000/svg">
<circle cx="26" cy="26" r="25.5" fill="#F96E7A" fill-opacity="0.1" stroke="white"/>
<path d="M40 16.3206C39.7816 16.7945 39.4065 16.9431 38.8979 16.9301C37.9239 16.904 36.9485 16.9239 35.973 16.9218C35.3474 16.9205 35.0291 16.6034 35.025 15.9829C35.0236 15.7576 35.025 15.5323 35.025 15.2947C33.9181 15.2947 32.838 15.2947 31.7037 15.2947C31.8126 15.3755 31.8865 15.433 31.9632 15.4864C34.5191 17.2704 36.0298 19.7111 36.4912 22.7867C36.574 23.3387 36.687 23.7242 37.2455 24.0276C38.1032 24.4933 38.4674 25.6075 38.2394 26.5519C38.0053 27.5229 37.1826 28.2927 36.2468 28.4166C35.1619 28.5605 34.2002 28.0996 33.7087 27.1997C33.0146 25.9287 33.4807 24.4563 34.7902 23.7954C34.9079 23.7359 34.9689 23.6831 34.9531 23.5304C34.769 21.7368 34.1433 20.1207 33.0187 18.7072C31.8003 17.1759 30.2416 16.1569 28.3579 15.6303C28.2134 15.5899 28.1505 15.6351 28.0752 15.7515C27.0641 17.3115 24.9415 17.3136 23.9339 15.7528C23.8476 15.62 23.7744 15.5981 23.6259 15.6385C20.18 16.576 17.5775 19.5529 17.0998 23.0928C17.0464 23.4893 17.0806 23.7338 17.4913 23.9694C18.4003 24.4919 18.8028 25.5897 18.5537 26.5662C18.2778 27.6476 17.4146 28.3639 16.2797 28.4529C15.3132 28.5289 14.3172 27.9058 13.9065 26.9682C13.3849 25.7766 13.9182 24.3454 15.1051 23.8071C15.3365 23.7023 15.4241 23.5756 15.4467 23.3298C15.6787 20.8582 16.6418 18.7072 18.3565 16.9157C18.9253 16.3212 19.5921 15.82 20.1889 15.2974C19.1772 15.2974 18.1026 15.2974 16.9834 15.2974C16.9834 15.5255 16.9854 15.7672 16.9827 16.009C16.9772 16.5938 16.6521 16.9191 16.0627 16.9205C15.0147 16.9232 13.9668 16.9232 12.9195 16.9205C12.3349 16.9184 12.0104 16.5897 12.0091 16.0008C12.0063 15.0345 12.0269 14.0682 12.0009 13.1026C11.9872 12.5937 12.1364 12.2185 12.6101 12C13.8675 12 15.1249 12 16.3824 12C17.1463 12.3219 16.9615 13.0129 16.9882 13.6408C17.1073 13.6408 17.2052 13.6408 17.3024 13.6408C19.3059 13.6408 21.3102 13.6374 23.3137 13.6456C23.5718 13.647 23.7593 13.6244 23.8442 13.3286C23.8894 13.1711 24.0208 13.0341 24.1262 12.8978C24.5198 12.389 25.0729 12.15 25.676 12.0007C25.8943 12.0007 26.1134 12.0007 26.3317 12.0007C26.3646 12.0151 26.3968 12.0356 26.4317 12.0431C27.2866 12.2191 27.8869 12.7081 28.2586 13.497C28.2956 13.5751 28.4551 13.6354 28.5577 13.6354C30.6257 13.6436 32.6929 13.6415 34.7608 13.6415C34.8402 13.6415 34.9196 13.6415 35.0202 13.6415C35.0462 13.0142 34.8614 12.3226 35.626 12.0007C36.8834 12.0007 38.1409 12.0007 39.3983 12.0007C39.5989 12.2013 39.7994 12.402 40 12.602C40 13.8408 40 15.081 40 16.3206Z" fill="#F96E7A"/>
<path d="M25.1852 19.209C25.1852 20.7115 25.1852 22.1325 25.1852 23.5535C25.1852 24.6198 25.1824 25.6854 25.1886 26.7517C25.1893 26.9071 25.1475 26.9893 24.9983 27.0585C24.0503 27.4967 23.4657 28.4658 23.5554 29.4225C23.6615 30.5545 24.3638 31.3941 25.4371 31.6708C26.5857 31.9666 27.9047 31.2736 28.2963 30.1676C28.7337 28.9321 28.2278 27.6275 27.0861 27.0954C26.8793 26.9989 26.8205 26.8879 26.8212 26.6695C26.8287 24.3007 26.826 21.9312 26.826 19.5624C26.826 19.4713 26.826 19.3809 26.826 19.2384C26.8978 19.3227 26.945 19.3685 26.9813 19.4227C29.0417 22.5133 31.1021 25.6046 33.1611 28.6966C33.4759 29.1691 33.4753 29.5129 33.0988 29.9046C31.6593 31.4044 30.753 33.176 30.3436 35.2086C30.3347 35.2524 30.3217 35.2955 30.3046 35.3606C30.2307 35.3428 30.165 35.3229 30.0979 35.312C29.5174 35.2147 28.9383 35.0504 28.3558 35.036C26.7897 34.997 25.2221 34.9976 23.656 35.0346C23.0098 35.0497 22.3664 35.1969 21.6935 35.2887C21.6285 35.025 21.5559 34.6902 21.4635 34.3608C20.9987 32.7096 20.1876 31.2544 19.0034 30.008C18.5283 29.5074 18.5098 29.2081 18.8959 28.6288C20.9255 25.5827 22.9551 22.5366 24.9846 19.4911C25.0332 19.4172 25.0866 19.3466 25.1852 19.209Z" fill="#F96E7A"/>
<path d="M26.0004 40.0002C24.4616 40.0002 22.9221 40.0016 21.3834 39.9975C21.2307 39.9968 21.0698 39.9858 20.9275 39.9365C20.4983 39.7872 20.2998 39.3469 20.4504 38.9195C20.922 37.5814 22.1411 36.6829 23.5635 36.6685C25.1933 36.6521 26.8238 36.6507 28.4536 36.6692C29.8644 36.685 31.0199 37.5307 31.538 38.8785C31.7468 39.4208 31.4162 39.9475 30.835 39.9954C30.7447 40.0029 30.653 39.9995 30.5619 39.9995C29.0416 40.0002 27.5213 40.0002 26.0004 40.0002Z" fill="#F96E7A"/>
<path d="M26.8216 29.2747C26.8257 29.7205 26.4567 30.0958 26.0104 30.0992C25.5648 30.1033 25.1897 29.7342 25.1856 29.2877C25.1815 28.8419 25.5504 28.4666 25.9967 28.4632C26.443 28.4591 26.8181 28.8282 26.8216 29.2747Z" fill="#F96E7A"/>
</svg>
