<svg width="52" height="52" viewBox="0 0 52 52" fill="none" xmlns="http://www.w3.org/2000/svg">
<circle cx="26" cy="26" r="25.5" fill="#0D1FFF" fill-opacity="0.1" stroke="white"/>
<path d="M11 29.6293C11.0118 22.0725 15.6324 15.4371 22.4065 13.4097C27.2756 11.9533 31.8064 12.8711 35.9563 15.9685C36.1745 16.1315 36.2164 16.2567 36.0973 16.5314C34.4046 20.4368 32.7178 24.3458 31.0537 28.2656C30.8455 28.7556 30.7817 29.3149 30.6341 29.8373C30.6013 29.9526 30.5174 30.0985 30.4234 30.1382C29.3945 30.5732 28.63 31.3108 28.1265 32.3683C28.0762 32.4745 27.9679 32.5763 27.8638 32.6213C25.7062 33.559 23.9909 35.0721 22.6734 37.1302C21.5186 38.9334 19.9057 39.9187 17.8656 39.9791C15.254 40.0565 13.0343 38.4254 12.0818 35.8134C11.3567 33.8247 10.9967 31.7675 11 29.6293ZM20.0391 29.6149C20.055 28.0558 18.8374 26.7372 17.3704 26.7272C15.9069 26.7164 14.69 28.0044 14.6724 29.5842C14.6539 31.1505 15.8573 32.4673 17.3251 32.4889C18.8013 32.5097 20.0231 31.2154 20.0391 29.6149ZM18.0334 21.3321C18.0317 22.9227 19.2225 24.2125 20.6945 24.2134C22.1858 24.2134 23.3867 22.9254 23.3867 21.3249C23.3858 19.7451 22.1816 18.4625 20.7037 18.467C19.2158 18.4715 18.0351 19.7388 18.0334 21.3321ZM31.4263 18.8138C31.4279 17.2403 30.2144 15.9379 28.7492 15.9397C27.2756 15.9415 26.078 17.2259 26.0738 18.8102C26.0696 20.3972 27.2621 21.6951 28.7299 21.7014C30.2144 21.7059 31.4254 20.4098 31.4263 18.8138Z" fill="#0D1FFF"/>
<path d="M33.7353 32.0423C34.4302 32.7557 34.7927 33.587 34.6861 34.5742C34.6358 35.0416 34.499 35.5253 34.2959 35.9423C33.215 38.1634 31.5039 39.4964 29.2137 39.9738C29.1423 39.9891 29.0685 39.9927 28.9955 39.9981C28.956 40.0017 28.9157 39.999 28.8805 39.999C28.8688 39.9603 28.8528 39.9369 28.8587 39.9216C29.2774 38.7795 29.2187 37.6167 29.0089 36.4413C28.8234 35.4001 28.8268 34.3679 29.1918 33.3583C29.7122 31.9172 30.8728 31.1642 32.312 31.3479C32.3514 31.3533 32.3917 31.3488 32.4488 31.3488C32.3464 31.1597 32.2398 30.9939 32.1626 30.8129C31.8974 30.1887 31.952 29.579 32.2172 28.9629C33.935 24.9837 35.6445 21.0017 37.3573 17.0198C37.9615 15.6147 38.5624 14.2078 39.1717 12.8045C39.4184 12.2371 39.8732 11.9597 40.4347 12.0047C40.9273 12.0444 41.3989 12.4172 41.4929 12.9523C41.5483 13.2648 41.5248 13.6323 41.4241 13.9313C40.2316 17.4629 39.0181 20.9864 37.8096 24.5117C37.1567 26.4166 36.503 28.3207 35.8476 30.2248C35.3961 31.5407 35.0604 31.8334 33.7353 32.0423Z" fill="#0D1FFF"/>
<path d="M40.3665 21.2405C41.977 24.0056 42.3949 26.7167 40.7618 29.3809C39.7967 30.9553 38.3944 31.8488 36.6656 32.1559C36.6245 32.1631 36.5825 32.1649 36.5406 32.1658C36.5204 32.1667 36.4995 32.1586 36.4902 32.1568C37.3177 30.4698 37.7902 28.6288 38.4254 26.8581C39.0632 25.0792 39.6591 23.2823 40.2734 21.4936C40.2994 21.4215 40.3271 21.3495 40.3665 21.2405Z" fill="#0D1FFF"/>
</svg>
