<svg width="52" height="52" viewBox="0 0 52 52" fill="none" xmlns="http://www.w3.org/2000/svg">
<circle cx="26" cy="26" r="25.5" fill="#F0F9F4" stroke="white"/>
<path d="M9.00088 29.804C9.56892 27.2091 11.5518 25.9211 13.7512 24.8349C13.9073 24.7581 14.0694 24.6944 14.2298 24.6262C14.2474 24.6185 14.2719 24.6254 14.3254 24.6254C14.3254 25.2806 14.3333 25.9332 14.3149 26.5849C14.3122 26.666 14.1843 26.7608 14.0948 26.8212C13.4725 27.2358 12.8308 27.6246 12.225 28.0617C11.9577 28.2548 11.7359 28.5247 11.5343 28.7893C10.7401 29.8282 10.8163 30.9929 11.7315 32.0584C12.268 32.6826 12.9325 33.1524 13.6443 33.5594C14.776 34.2068 16.4477 34.8534 17.7819 35.1594C17.916 34.5672 18.0597 33.9758 18.1807 33.38C18.2692 32.9447 18.4709 32.6205 18.9276 32.4938C19.3606 32.374 19.6894 32.5472 19.983 32.8429C21.1454 34.0111 22.3148 35.1724 23.4763 36.3422C24.0812 36.9517 23.9155 37.7233 23.1072 38.044C21.5381 38.6665 19.9637 39.276 18.3946 39.8975C17.994 40.0562 17.6223 40.045 17.2918 39.7605C16.9754 39.4872 16.8921 39.1432 16.992 38.7371C17.1253 38.1957 17.2322 37.6483 17.3576 37.0698C17.2261 37.0319 17.1148 36.9983 17.0034 36.9672C15.1766 36.456 13.4234 35.781 11.8542 34.7042C10.9303 34.0706 10.0993 33.3343 9.58031 32.3352C9.3261 31.8446 9.18935 31.2955 9 30.7722C9.00088 30.4489 9.00088 30.1265 9.00088 29.804Z" fill="#97D8B2"/>
<path d="M34.3055 16.6338C33.5376 17.0726 32.8038 17.4933 32.0701 17.9123C30.0679 19.0555 28.0649 20.1969 26.0645 21.3418C25.9076 21.4314 25.7857 21.4814 25.5946 21.3719C22.8947 19.8279 20.1886 18.296 17.4842 16.7597C17.4369 16.733 17.3931 16.7019 17.3203 16.6562C17.4018 16.5993 17.4667 16.5476 17.5377 16.5071C20.0711 15.0665 22.6071 13.6303 25.1379 12.1854C25.5333 11.9595 25.9084 11.9293 26.3117 12.1543C28.9319 13.6182 31.5547 15.0786 34.1766 16.5399C34.2038 16.5554 34.2283 16.5778 34.3055 16.6338Z" fill="#97D8B2"/>
<path d="M35.3098 18.3149C35.3098 18.471 35.3098 18.577 35.3098 18.6822C35.3098 21.509 35.3028 24.3359 35.3159 27.1627C35.3185 27.7084 35.1046 28.0645 34.6243 28.3352C32.1119 29.7464 29.6101 31.1749 27.1047 32.5965C27.0136 32.6483 26.918 32.6922 26.7979 32.7526C26.7926 32.6327 26.7856 32.55 26.7856 32.4672C26.7848 29.4576 26.7865 26.448 26.7812 23.4384C26.7812 23.2462 26.8277 23.1298 27.0074 23.0289C29.703 21.5004 32.3933 19.9633 35.0854 18.4296C35.1388 18.3986 35.1976 18.3718 35.3098 18.3149Z" fill="#97D8B2"/>
<path d="M16.3116 18.3303C17.111 18.7829 17.857 19.2045 18.603 19.6278C20.5885 20.7554 22.5741 21.8848 24.5613 23.0098C24.7226 23.1012 24.8252 23.184 24.8243 23.3986C24.8155 26.441 24.8182 29.4834 24.8182 32.5266C24.8182 32.5886 24.8103 32.6507 24.8042 32.7507C24.6858 32.6886 24.5911 32.643 24.5008 32.5921C21.9753 31.1593 19.4516 29.7239 16.9226 28.2971C16.5141 28.0661 16.2949 27.7522 16.2949 27.285C16.2967 24.3823 16.2958 21.4796 16.2967 18.5769C16.2958 18.514 16.3028 18.4519 16.3116 18.3303Z" fill="#97D8B2"/>
<path d="M37.278 24.5703C38.8252 25.2453 40.2225 26.0307 41.3156 27.2463C43.0951 29.2257 43.0145 31.7128 41.1298 33.6138C40.0971 34.6552 38.8427 35.3664 37.4998 35.9337C34.7647 37.0889 31.8921 37.6863 28.9388 37.9441C28.3006 38.0002 27.8466 37.6338 27.7966 37.0579C27.751 36.5346 28.1402 36.1053 28.7433 36.0259C29.0466 35.9863 29.3526 35.9716 29.6559 35.9337C32.5653 35.5733 35.3959 34.9423 37.9907 33.5293C38.7112 33.137 39.3722 32.6629 39.9069 32.0361C40.858 30.9206 40.8651 29.7421 39.9218 28.6187C39.2766 27.8506 38.4518 27.3092 37.5655 26.854C37.3551 26.7463 37.2631 26.6342 37.271 26.3911C37.2911 25.8014 37.278 25.2109 37.278 24.5703Z" fill="#97D8B2"/>
</svg>
