<svg width="18" height="18" viewBox="0 0 18 18" fill="none" xmlns="http://www.w3.org/2000/svg">
<g clip-path="url(#clip0_336_443)">
<path d="M15 1H3C1.89543 1 1 1.89543 1 3V15C1 16.1046 1.89543 17 3 17H15C16.1046 17 17 16.1046 17 15V3C17 1.89543 16.1046 1 15 1Z" stroke="#CED5DA"/>
<g clip-path="url(#clip1_336_443)">
<path d="M13.7676 5.63463C13.4582 5.32482 12.9558 5.32501 12.646 5.63463L7.59787 10.683L5.35419 8.4393C5.04438 8.12949 4.54217 8.12949 4.23236 8.4393C3.92255 8.74912 3.92255 9.25132 4.23236 9.56113L7.03684 12.3656C7.19165 12.5204 7.39464 12.598 7.59765 12.598C7.80067 12.598 8.00386 12.5206 8.15867 12.3656L13.7676 6.75644C14.0775 6.44684 14.0775 5.94443 13.7676 5.63463Z" fill="#1B22FB"/>
</g>
</g>
<defs>
<clipPath id="clip0_336_443">
<rect width="18" height="18" fill="white"/>
</clipPath>
<clipPath id="clip1_336_443">
<rect width="10" height="10" fill="white" transform="translate(4 4)"/>
</clipPath>
</defs>
</svg>
