<svg width="24" height="24" viewBox="0 0 24 24" fill="none" xmlns="http://www.w3.org/2000/svg">
<circle cx="12" cy="12" r="12" fill="#F4F4F4"/>
<path d="M16.583 8.16828C16.3181 7.90332 16.0037 7.69313 15.6576 7.54973C15.3115 7.40633 14.9406 7.33252 14.5659 7.33252C14.1913 7.33252 13.8204 7.40633 13.4743 7.54973C13.1282 7.69313 12.8137 7.90332 12.5489 8.16828L11.9993 8.71791L11.4496 8.16828C10.9147 7.63333 10.1891 7.3328 9.4326 7.3328C8.67606 7.3328 7.95051 7.63333 7.41556 8.16828C6.88061 8.70323 6.58008 9.42878 6.58008 10.1853C6.58008 10.9419 6.88061 11.6674 7.41556 12.2024L7.96519 12.752L11.9993 16.7861L16.0333 12.752L16.583 12.2024C16.8479 11.9375 17.0581 11.6231 17.2015 11.277C17.3449 10.9309 17.4187 10.5599 17.4187 10.1853C17.4187 9.81069 17.3449 9.43974 17.2015 9.09365C17.0581 8.74756 16.8479 8.43312 16.583 8.16828V8.16828Z" stroke="#8F8F8F" stroke-linecap="round" stroke-linejoin="round"/>
</svg>
