<svg width="44" height="44" viewBox="0 0 44 44" fill="none" xmlns="http://www.w3.org/2000/svg">
<rect width="44" height="44" rx="22" fill="#F5F6FF"/>
<path d="M31.767 22.2093C31.767 21.5275 31.7116 20.842 31.5935 20.1713H22.1172V24.0336H27.5438C27.3186 25.2793 26.5951 26.3813 25.5356 27.0815V29.5876H28.7731C30.6743 27.8407 31.767 25.2609 31.767 22.2093Z" fill="#4285F4"/>
<path d="M22.0703 32C24.7807 32 27.0665 31.1134 28.7319 29.583L25.4934 27.0814C24.5924 27.6921 23.4292 28.0379 22.074 28.0379C19.4523 28.0379 17.2293 26.2758 16.4317 23.9066H13.0898V26.4855C14.7958 29.8663 18.2706 32 22.0703 32Z" fill="#0A22FB"/>
<path d="M16.4358 23.9633C16.0121 22.7148 16.0121 21.363 16.4358 20.1145V17.5253H13.076C11.6413 20.3657 11.6413 23.7121 13.076 26.5525L16.4358 23.9633Z" fill="#FBBC04"/>
<path d="M22.0789 15.9606C23.5131 15.9386 24.8991 16.4754 25.9378 17.4608L28.8097 14.6039C26.9912 12.9052 24.5776 11.9713 22.0789 12.0007C18.2756 12.0007 14.7975 14.1332 13.0898 17.5159L16.4312 20.0934C17.2259 17.7218 19.4547 15.9606 22.0789 15.9606Z" fill="#EA4335"/>
</svg>
