


<svg width="18" height="18" viewBox="0 0 18 18" fill="none" xmlns="http://www.w3.org/2000/svg">
<path d="M0.850004 0.849999C0.744311 0.955722 0.680014 1.09583 0.668777 1.2449C0.657539 1.39397 0.700105 1.54213 0.788754 1.6625L0.850004 1.73375L4.2125 5.09625C2.57326 6.2449 1.40299 7.94595 0.916254 9.8875C0.880413 10.0468 0.908315 10.2137 0.993991 10.3527C1.07967 10.4917 1.21632 10.5916 1.37472 10.6311C1.53312 10.6706 1.70069 10.6466 1.8416 10.5642C1.98251 10.4817 2.08558 10.3474 2.12875 10.19C2.56096 8.4668 3.62565 6.96927 5.11125 5.995L6.62 7.50375C6.01478 8.13288 5.68049 8.97431 5.68894 9.84725C5.6974 10.7202 6.04793 11.555 6.66522 12.1723C7.28251 12.7896 8.11731 13.1401 8.99025 13.1486C9.86319 13.157 10.7046 12.8227 11.3338 12.2175L16.2663 17.15C16.3778 17.2611 16.5271 17.326 16.6844 17.3317C16.8417 17.3375 16.9954 17.2837 17.1148 17.1811C17.2341 17.0784 17.3103 16.9346 17.3282 16.7782C17.3461 16.6218 17.3043 16.4644 17.2113 16.3375L17.15 16.2662L12.0563 11.1712V11.17L11.0563 10.1712L8.665 7.78H8.66625L6.26625 5.38125V5.38L5.3225 4.4375L1.73375 0.849999C1.61655 0.73283 1.45761 0.667007 1.29188 0.667007C1.12615 0.667007 0.967209 0.73283 0.850004 0.849999ZM7.50375 8.3875L10.4488 11.3337C10.0554 11.7113 9.52969 11.9197 8.98446 11.9141C8.43923 11.9085 7.91791 11.6895 7.53236 11.3039C7.1468 10.9183 6.92773 10.397 6.92215 9.85179C6.91657 9.30656 7.12492 8.78087 7.5025 8.3875H7.50375ZM9 3.58375C8.16625 3.58375 7.3575 3.70625 6.5925 3.9375L7.62375 4.9675C9.40677 4.61432 11.2573 4.95979 12.7928 5.9325C14.3283 6.90521 15.4313 8.43076 15.8738 10.1937C15.9169 10.3512 16.02 10.4855 16.1609 10.5679C16.3018 10.6504 16.4694 10.6744 16.6278 10.6349C16.7862 10.5954 16.9228 10.4954 17.0085 10.3565C17.0942 10.2175 17.1221 10.0505 17.0863 9.89125C16.6341 8.08911 15.5928 6.48969 14.1278 5.34694C12.6628 4.20418 10.858 3.58361 9 3.58375ZM9.1625 6.50875L12.33 9.675C12.2894 8.84804 11.9427 8.06574 11.3572 7.48029C10.7718 6.89483 9.98946 6.54809 9.1625 6.5075V6.50875Z" fill="#7D858D"/>
</svg>
