<svg width="24" height="24" viewBox="0 0 24 24" fill="none" xmlns="http://www.w3.org/2000/svg">
<circle cx="12" cy="12" r="12" fill="#F4F4F4"/>
<path d="M16.583 8.13581C16.3181 7.87085 16.0037 7.66066 15.6576 7.51726C15.3115 7.37386 14.9406 7.30005 14.5659 7.30005C14.1913 7.30005 13.8204 7.37386 13.4743 7.51726C13.1282 7.66066 12.8137 7.87085 12.5489 8.13581L11.9993 8.68544L11.4496 8.13581C10.9147 7.60086 10.1891 7.30033 9.4326 7.30033C8.67606 7.30033 7.95051 7.60086 7.41556 8.13581C6.88061 8.67076 6.58008 9.39631 6.58008 10.1528C6.58008 10.9094 6.88061 11.6349 7.41556 12.1699L7.96519 12.7195L11.9993 16.7536L16.0333 12.7195L16.583 12.1699C16.8479 11.905 17.0581 11.5906 17.2015 11.2445C17.3449 10.8984 17.4187 10.5275 17.4187 10.1528C17.4187 9.77822 17.3449 9.40727 17.2015 9.06118C17.0581 8.71509 16.8479 8.40065 16.583 8.13581V8.13581Z" fill="#EC0309" stroke="#EC0309" stroke-linecap="round" stroke-linejoin="round"/>
</svg>
