<svg width="46" height="46" viewBox="0 0 46 46" fill="none" xmlns="http://www.w3.org/2000/svg">
<g clip-path="url(#clip0_287_3522)">
<path d="M22.9986 45.9972C35.7004 45.9972 45.9972 35.7004 45.9972 22.9986C45.9972 10.2968 35.7004 0 22.9986 0C10.2968 0 0 10.2968 0 22.9986C0 35.7004 10.2968 45.9972 22.9986 45.9972Z" fill="#F96E7A"/>
<path d="M25.6949 29.3126C28.5816 28.4754 30.4379 26.7226 31.4207 25.4823L37.3762 29.0578C35.5758 31.8801 32.9719 34.358 27.7276 35.8784C18.7706 38.4739 11.4236 34.7276 9.1865 27.0082C6.98296 19.4064 11.4824 12.2246 19.2606 9.97066C28.2764 7.35553 35.1166 12.6586 37.071 21.61L18.0371 27.1286C19.5546 29.5001 22.1026 30.3569 25.6977 29.3154L25.6949 29.3126ZM27.722 19.3336C26.5656 16.6653 24.3201 15.5285 21.1954 16.4329C18.0735 17.3373 16.3599 19.3672 16.5839 22.5619L27.722 19.3336Z" fill="#0A22FB"/>
</g>
<defs>
<clipPath id="clip0_287_3522">
<rect width="46" height="46" fill="white"/>
</clipPath>
</defs>
</svg>
