<svg width="22" height="22" viewBox="0 0 22 22" fill="none" xmlns="http://www.w3.org/2000/svg">
<path fill-rule="evenodd" clip-rule="evenodd" d="M10.7604 1.83325C15.6829 1.83325 19.6869 5.83725 19.6869 10.7598C19.6869 13.0822 18.7957 15.2003 17.3372 16.79L20.207 19.6539C20.4756 19.9225 20.4765 20.357 20.208 20.6256C20.0741 20.7612 19.8972 20.8281 19.7212 20.8281C19.5461 20.8281 19.3701 20.7612 19.2354 20.6274L16.3309 17.731C14.803 18.9546 12.8657 19.6872 10.7604 19.6872C5.83793 19.6872 1.83301 15.6823 1.83301 10.7598C1.83301 5.83725 5.83793 1.83325 10.7604 1.83325ZM10.7604 3.20825C6.59601 3.20825 3.20801 6.59534 3.20801 10.7598C3.20801 14.9242 6.59601 18.3122 10.7604 18.3122C14.9239 18.3122 18.3119 14.9242 18.3119 10.7598C18.3119 6.59534 14.9239 3.20825 10.7604 3.20825Z" fill=""/>
</svg>
