<svg width="18" height="11" viewBox="0 0 18 11" fill="none" xmlns="http://www.w3.org/2000/svg">
<path d="M9.00001 3.50375C9.4378 3.50375 9.87131 3.58998 10.2758 3.75752C10.6802 3.92505 11.0478 4.17062 11.3573 4.48018C11.6669 4.78975 11.9125 5.15726 12.08 5.56173C12.2475 5.9662 12.3338 6.39971 12.3338 6.8375C12.3338 7.2753 12.2475 7.7088 12.08 8.11327C11.9125 8.51774 11.6669 8.88525 11.3573 9.19482C11.0478 9.50439 10.6802 9.74995 10.2758 9.91748C9.87131 10.085 9.4378 10.1713 9.00001 10.1713C8.11584 10.1713 7.26789 9.82002 6.64269 9.19482C6.01749 8.56962 5.66626 7.72167 5.66626 6.8375C5.66626 5.95334 6.01749 5.10538 6.64269 4.48018C7.26789 3.85498 8.11584 3.50375 9.00001 3.50375V3.50375ZM9.00001 4.75375C8.44736 4.75375 7.91735 4.97329 7.52657 5.36407C7.13579 5.75485 6.91626 6.28486 6.91626 6.8375C6.91626 7.39015 7.13579 7.92016 7.52657 8.31094C7.91735 8.70171 8.44736 8.92125 9.00001 8.92125C9.55265 8.92125 10.0827 8.70171 10.4734 8.31094C10.8642 7.92016 11.0838 7.39015 11.0838 6.8375C11.0838 6.28486 10.8642 5.75485 10.4734 5.36407C10.0827 4.97329 9.55265 4.75375 9.00001 4.75375ZM9.00001 0.583752C12.845 0.583752 16.1625 3.20875 17.0838 6.8875C17.1058 6.96783 17.1115 7.05175 17.1007 7.13433C17.0898 7.21691 17.0625 7.29649 17.0205 7.36839C16.9784 7.44028 16.9224 7.50304 16.8557 7.55299C16.7891 7.60293 16.7131 7.63904 16.6323 7.6592C16.5515 7.67937 16.4675 7.68317 16.3851 7.6704C16.3028 7.65762 16.2239 7.62852 16.153 7.58481C16.0821 7.54109 16.0207 7.48365 15.9723 7.41585C15.9239 7.34805 15.8895 7.27126 15.8713 7.19C15.4845 5.66034 14.5983 4.30348 13.3532 3.33438C12.1081 2.36528 10.5752 1.83936 8.99743 1.83993C7.41963 1.84051 5.88714 2.36754 4.64273 3.33755C3.39833 4.30756 2.51318 5.66506 2.12751 7.195C2.08627 7.35475 1.98354 7.49172 1.84172 7.57603C1.69991 7.66034 1.5305 7.68515 1.37046 7.64506C1.21042 7.60497 1.07272 7.50322 0.987403 7.36201C0.902081 7.2208 0.876057 7.05158 0.915006 6.89125C1.36713 5.08932 2.4082 3.49005 3.87296 2.34732C5.33772 1.20459 7.14222 0.58389 9.00001 0.583752Z" fill="#7D858D"/>
</svg>