<svg width="8" height="8" viewBox="0 0 8 8" fill="none" xmlns="http://www.w3.org/2000/svg">
<path d="M3.81896 0.385675C3.89094 0.232324 4.10906 0.232324 4.18105 0.385675L5.1907 2.53652C5.21902 2.59684 5.27551 2.63909 5.34136 2.64921L7.61554 2.99874C7.77639 3.02347 7.84195 3.2197 7.72826 3.33614L6.07055 5.03395C6.02618 5.07939 6.00603 5.14319 6.01626 5.20587L6.40569 7.59344C6.43256 7.75822 6.25762 7.88145 6.11151 7.80065L4.09678 6.68654C4.03656 6.65323 3.96344 6.65323 3.90322 6.68654L1.88849 7.80065C1.74238 7.88145 1.56744 7.75822 1.59431 7.59344L1.98374 5.20587C1.99397 5.14319 1.97382 5.07939 1.92945 5.03395L0.271739 3.33614C0.158049 3.21971 0.223608 3.02347 0.384457 2.99874L2.65864 2.64921C2.72449 2.63909 2.78098 2.59684 2.8093 2.53652L3.81896 0.385675Z" fill="#FFC02F"/>
</svg>
